<?xml version="1.0" encoding="utf-8"?>
<!-- Generator: Adobe Illustrator 16.0.0, SVG Export Plug-In . SVG Version: 6.00 Build 0)  -->
<svg version="1.2" baseProfile="tiny" id="Layer_1" xmlns="http://www.w3.org/2000/svg" xmlns:xlink="http://www.w3.org/1999/xlink"
	 x="0px" y="0px" width="551.209px" height="636.473px" viewBox="0 0 551.209 636.473" xml:space="preserve">
<path fill="#E6E7E8" d="M108.642,209.365v103.697l85.397-49.307V160.058L108.642,209.365z M361.521,63.355l-47.539-27.449
	l-38.368-22.143L11.919,165.995v304.482l41.824,24.156V186.165L248.938,73.461v54.898l-0.041,0.02h0.041v353.059l26.493,15.291
	l167.686-84.484V206.478L302.82,125.471V70.573l195.194,112.705v256.191L276.388,551.158v1.018l-0.957-0.549l-1.076-0.631
	l-80.315-46.359V318.653l-85.397,49.308v158.352l166.972,96.396l263.675-152.232V165.995L361.521,63.355z"/>
<text transform="matrix(1 0.5774 0 1 191.8057 300.2334)" display="none" fill="#FFFFFF" font-family="'SquareFont'" font-size="250">-</text>
<line fill="none" x1="-7915.896" y1="318.236" x2="8467.104" y2="318.236"/>
</svg>
